<mxfile host="app.diagrams.net" modified="2024-03-28T12:14:58.696Z" agent="Mozilla/5.0 (Windows NT 10.0; Win64; x64) AppleWebKit/537.36 (KHTML, like Gecko) Chrome/122.0.0.0 Safari/537.36" etag="XoCsfxfL8xzIYJ37y_ji" version="24.2.0" type="github">
  <diagram name="第 1 页" id="CzVyRBSfZFm04Q1m4lYB">
    <mxGraphModel dx="794" dy="446" grid="1" gridSize="10" guides="1" tooltips="1" connect="1" arrows="1" fold="1" page="1" pageScale="1" pageWidth="827" pageHeight="1169" math="0" shadow="0">
      <root>
        <mxCell id="0" />
        <mxCell id="1" parent="0" />
        <mxCell id="rpckH2RvcMztJje-xdp0-1" value="開始" style="ellipse;whiteSpace=wrap;html=1;" vertex="1" parent="1">
          <mxGeometry x="340" y="40" width="120" height="80" as="geometry" />
        </mxCell>
        <mxCell id="rpckH2RvcMztJje-xdp0-3" value="請先輸入生日" style="rounded=0;whiteSpace=wrap;html=1;" vertex="1" parent="1">
          <mxGeometry x="340" y="180" width="120" height="60" as="geometry" />
        </mxCell>
        <mxCell id="rpckH2RvcMztJje-xdp0-4" value="" style="endArrow=classic;html=1;rounded=0;" edge="1" parent="1" source="rpckH2RvcMztJje-xdp0-1">
          <mxGeometry width="50" height="50" relative="1" as="geometry">
            <mxPoint x="310" y="160" as="sourcePoint" />
            <mxPoint x="400" y="180" as="targetPoint" />
          </mxGeometry>
        </mxCell>
        <mxCell id="rpckH2RvcMztJje-xdp0-35" value="" style="edgeStyle=orthogonalEdgeStyle;rounded=0;orthogonalLoop=1;jettySize=auto;html=1;" edge="1" parent="1" source="rpckH2RvcMztJje-xdp0-9" target="rpckH2RvcMztJje-xdp0-34">
          <mxGeometry relative="1" as="geometry" />
        </mxCell>
        <mxCell id="rpckH2RvcMztJje-xdp0-9" value="接著再登入自己的名稱" style="rounded=0;whiteSpace=wrap;html=1;" vertex="1" parent="1">
          <mxGeometry x="340" y="320" width="120" height="60" as="geometry" />
        </mxCell>
        <mxCell id="rpckH2RvcMztJje-xdp0-11" value="" style="endArrow=classic;html=1;rounded=0;entryX=0.5;entryY=0;entryDx=0;entryDy=0;exitX=0.5;exitY=1;exitDx=0;exitDy=0;" edge="1" parent="1" source="rpckH2RvcMztJje-xdp0-3" target="rpckH2RvcMztJje-xdp0-9">
          <mxGeometry width="50" height="50" relative="1" as="geometry">
            <mxPoint x="360" y="300" as="sourcePoint" />
            <mxPoint x="410" y="250" as="targetPoint" />
          </mxGeometry>
        </mxCell>
        <mxCell id="rpckH2RvcMztJje-xdp0-17" value="就要再重複登入名稱" style="shape=hexagon;perimeter=hexagonPerimeter2;whiteSpace=wrap;html=1;fixedSize=1;" vertex="1" parent="1">
          <mxGeometry x="170" y="545" width="120" height="80" as="geometry" />
        </mxCell>
        <mxCell id="rpckH2RvcMztJje-xdp0-18" value="" style="endArrow=classic;html=1;rounded=0;entryX=0.5;entryY=0;entryDx=0;entryDy=0;" edge="1" parent="1" source="rpckH2RvcMztJje-xdp0-34" target="rpckH2RvcMztJje-xdp0-17">
          <mxGeometry width="50" height="50" relative="1" as="geometry">
            <mxPoint x="270" y="490" as="sourcePoint" />
            <mxPoint x="250" y="540" as="targetPoint" />
          </mxGeometry>
        </mxCell>
        <mxCell id="rpckH2RvcMztJje-xdp0-19" value="" style="endArrow=classic;html=1;rounded=0;exitX=0.84;exitY=0.681;exitDx=0;exitDy=0;exitPerimeter=0;entryX=0.422;entryY=0.006;entryDx=0;entryDy=0;entryPerimeter=0;" edge="1" parent="1" source="rpckH2RvcMztJje-xdp0-34" target="rpckH2RvcMztJje-xdp0-22">
          <mxGeometry width="50" height="50" relative="1" as="geometry">
            <mxPoint x="500" y="490" as="sourcePoint" />
            <mxPoint x="520" y="550" as="targetPoint" />
          </mxGeometry>
        </mxCell>
        <mxCell id="rpckH2RvcMztJje-xdp0-20" value="" style="endArrow=classic;html=1;rounded=0;exitX=0.5;exitY=1;exitDx=0;exitDy=0;" edge="1" parent="1" source="rpckH2RvcMztJje-xdp0-17">
          <mxGeometry width="50" height="50" relative="1" as="geometry">
            <mxPoint x="200" y="680" as="sourcePoint" />
            <mxPoint x="260" y="670" as="targetPoint" />
          </mxGeometry>
        </mxCell>
        <mxCell id="rpckH2RvcMztJje-xdp0-21" value="直到登入自己的名稱可以用" style="rounded=0;whiteSpace=wrap;html=1;" vertex="1" parent="1">
          <mxGeometry x="220" y="670" width="120" height="60" as="geometry" />
        </mxCell>
        <mxCell id="rpckH2RvcMztJje-xdp0-22" value="那就可以進到下一步" style="rounded=0;whiteSpace=wrap;html=1;" vertex="1" parent="1">
          <mxGeometry x="480" y="585" width="120" height="60" as="geometry" />
        </mxCell>
        <mxCell id="rpckH2RvcMztJje-xdp0-23" value="" style="endArrow=classic;html=1;rounded=0;exitX=0.5;exitY=1;exitDx=0;exitDy=0;entryX=0.911;entryY=-0.067;entryDx=0;entryDy=0;entryPerimeter=0;" edge="1" parent="1" source="rpckH2RvcMztJje-xdp0-22" target="rpckH2RvcMztJje-xdp0-25">
          <mxGeometry width="50" height="50" relative="1" as="geometry">
            <mxPoint x="470" y="660" as="sourcePoint" />
            <mxPoint x="420" y="780" as="targetPoint" />
          </mxGeometry>
        </mxCell>
        <mxCell id="rpckH2RvcMztJje-xdp0-24" value="" style="endArrow=classic;html=1;rounded=0;exitX=0.5;exitY=1;exitDx=0;exitDy=0;entryX=0.183;entryY=-0.011;entryDx=0;entryDy=0;entryPerimeter=0;" edge="1" parent="1" source="rpckH2RvcMztJje-xdp0-21" target="rpckH2RvcMztJje-xdp0-25">
          <mxGeometry width="50" height="50" relative="1" as="geometry">
            <mxPoint x="250" y="790" as="sourcePoint" />
            <mxPoint x="310" y="780" as="targetPoint" />
          </mxGeometry>
        </mxCell>
        <mxCell id="rpckH2RvcMztJje-xdp0-25" value="再來就是登入密碼" style="rounded=0;whiteSpace=wrap;html=1;" vertex="1" parent="1">
          <mxGeometry x="300" y="790" width="120" height="60" as="geometry" />
        </mxCell>
        <mxCell id="rpckH2RvcMztJje-xdp0-32" value="就可以進到後後一步" style="rounded=0;whiteSpace=wrap;html=1;" vertex="1" parent="1">
          <mxGeometry x="480" y="960" width="120" height="60" as="geometry" />
        </mxCell>
        <mxCell id="rpckH2RvcMztJje-xdp0-33" value="就要重覆再打超過8個字" style="shape=hexagon;perimeter=hexagonPerimeter2;whiteSpace=wrap;html=1;fixedSize=1;" vertex="1" parent="1">
          <mxGeometry x="150" y="940" width="120" height="80" as="geometry" />
        </mxCell>
        <mxCell id="rpckH2RvcMztJje-xdp0-34" value="使用者名稱是否跟別人一樣" style="rhombus;whiteSpace=wrap;html=1;" vertex="1" parent="1">
          <mxGeometry x="350" y="420" width="100" height="95" as="geometry" />
        </mxCell>
        <mxCell id="rpckH2RvcMztJje-xdp0-36" value="否" style="text;html=1;align=center;verticalAlign=middle;whiteSpace=wrap;rounded=0;" vertex="1" parent="1">
          <mxGeometry x="490" y="490" width="60" height="30" as="geometry" />
        </mxCell>
        <mxCell id="rpckH2RvcMztJje-xdp0-37" value="是" style="text;html=1;align=center;verticalAlign=middle;whiteSpace=wrap;rounded=0;" vertex="1" parent="1">
          <mxGeometry x="250" y="480" width="60" height="30" as="geometry" />
        </mxCell>
        <mxCell id="rpckH2RvcMztJje-xdp0-38" value="使用的密碼是否有打超過8個字以上" style="rhombus;whiteSpace=wrap;html=1;" vertex="1" parent="1">
          <mxGeometry x="305" y="860" width="110" height="90" as="geometry" />
        </mxCell>
        <mxCell id="rpckH2RvcMztJje-xdp0-40" value="" style="endArrow=classic;html=1;rounded=0;entryX=0.5;entryY=0;entryDx=0;entryDy=0;exitX=0.5;exitY=1;exitDx=0;exitDy=0;" edge="1" parent="1" source="rpckH2RvcMztJje-xdp0-25" target="rpckH2RvcMztJje-xdp0-38">
          <mxGeometry width="50" height="50" relative="1" as="geometry">
            <mxPoint x="320" y="890" as="sourcePoint" />
            <mxPoint x="370" y="840" as="targetPoint" />
          </mxGeometry>
        </mxCell>
        <mxCell id="rpckH2RvcMztJje-xdp0-41" value="否" style="text;html=1;align=center;verticalAlign=middle;whiteSpace=wrap;rounded=0;" vertex="1" parent="1">
          <mxGeometry x="230" y="850" width="60" height="30" as="geometry" />
        </mxCell>
        <mxCell id="rpckH2RvcMztJje-xdp0-42" value="是" style="text;html=1;align=center;verticalAlign=middle;whiteSpace=wrap;rounded=0;" vertex="1" parent="1">
          <mxGeometry x="460" y="850" width="60" height="30" as="geometry" />
        </mxCell>
        <mxCell id="rpckH2RvcMztJje-xdp0-45" value="" style="endArrow=classic;html=1;rounded=0;exitX=0.5;exitY=1;exitDx=0;exitDy=0;entryX=0.75;entryY=0;entryDx=0;entryDy=0;" edge="1" parent="1" source="rpckH2RvcMztJje-xdp0-32" target="rpckH2RvcMztJje-xdp0-49">
          <mxGeometry width="50" height="50" relative="1" as="geometry">
            <mxPoint x="490" y="1050" as="sourcePoint" />
            <mxPoint x="410" y="1120" as="targetPoint" />
          </mxGeometry>
        </mxCell>
        <mxCell id="rpckH2RvcMztJje-xdp0-46" value="直到成功為止" style="rounded=0;whiteSpace=wrap;html=1;" vertex="1" parent="1">
          <mxGeometry x="190" y="1050" width="120" height="60" as="geometry" />
        </mxCell>
        <mxCell id="rpckH2RvcMztJje-xdp0-47" value="" style="endArrow=classic;html=1;rounded=0;exitX=0.5;exitY=1;exitDx=0;exitDy=0;entryX=0.5;entryY=0;entryDx=0;entryDy=0;" edge="1" parent="1" source="rpckH2RvcMztJje-xdp0-33" target="rpckH2RvcMztJje-xdp0-46">
          <mxGeometry width="50" height="50" relative="1" as="geometry">
            <mxPoint x="240" y="960" as="sourcePoint" />
            <mxPoint x="260" y="1030" as="targetPoint" />
          </mxGeometry>
        </mxCell>
        <mxCell id="rpckH2RvcMztJje-xdp0-48" value="" style="endArrow=classic;html=1;rounded=0;exitX=0.5;exitY=1;exitDx=0;exitDy=0;" edge="1" parent="1" source="rpckH2RvcMztJje-xdp0-46">
          <mxGeometry width="50" height="50" relative="1" as="geometry">
            <mxPoint x="230" y="1140" as="sourcePoint" />
            <mxPoint x="310" y="1140" as="targetPoint" />
          </mxGeometry>
        </mxCell>
        <mxCell id="rpckH2RvcMztJje-xdp0-49" value="最後就是女生還是男生" style="rounded=0;whiteSpace=wrap;html=1;" vertex="1" parent="1">
          <mxGeometry x="290" y="1140" width="120" height="60" as="geometry" />
        </mxCell>
        <mxCell id="rpckH2RvcMztJje-xdp0-50" value="登入完之後" style="rounded=0;whiteSpace=wrap;html=1;" vertex="1" parent="1">
          <mxGeometry x="290" y="1250" width="120" height="60" as="geometry" />
        </mxCell>
        <mxCell id="rpckH2RvcMztJje-xdp0-51" value="" style="endArrow=classic;html=1;rounded=0;entryX=0.561;entryY=-0.022;entryDx=0;entryDy=0;entryPerimeter=0;exitX=0.5;exitY=1;exitDx=0;exitDy=0;" edge="1" parent="1" source="rpckH2RvcMztJje-xdp0-49" target="rpckH2RvcMztJje-xdp0-50">
          <mxGeometry width="50" height="50" relative="1" as="geometry">
            <mxPoint x="310" y="1250" as="sourcePoint" />
            <mxPoint x="360" y="1200" as="targetPoint" />
          </mxGeometry>
        </mxCell>
        <mxCell id="rpckH2RvcMztJje-xdp0-52" value="" style="endArrow=classic;html=1;rounded=0;exitX=0.5;exitY=1;exitDx=0;exitDy=0;" edge="1" parent="1" source="rpckH2RvcMztJje-xdp0-50">
          <mxGeometry width="50" height="50" relative="1" as="geometry">
            <mxPoint x="320" y="1370" as="sourcePoint" />
            <mxPoint x="350" y="1380" as="targetPoint" />
          </mxGeometry>
        </mxCell>
        <mxCell id="rpckH2RvcMztJje-xdp0-53" value="在案是否同意註冊" style="rounded=0;whiteSpace=wrap;html=1;" vertex="1" parent="1">
          <mxGeometry x="295" y="1380" width="120" height="60" as="geometry" />
        </mxCell>
        <mxCell id="rpckH2RvcMztJje-xdp0-54" value="就完成了" style="rounded=0;whiteSpace=wrap;html=1;shape=ellipse;perimeter=ellipsePerimeter;" vertex="1" parent="1">
          <mxGeometry x="300" y="1480" width="120" height="60" as="geometry" />
        </mxCell>
        <mxCell id="rpckH2RvcMztJje-xdp0-55" value="" style="endArrow=classic;html=1;rounded=0;entryX=0.5;entryY=0;entryDx=0;entryDy=0;exitX=0.5;exitY=1;exitDx=0;exitDy=0;" edge="1" parent="1" source="rpckH2RvcMztJje-xdp0-53" target="rpckH2RvcMztJje-xdp0-54">
          <mxGeometry width="50" height="50" relative="1" as="geometry">
            <mxPoint x="310" y="1490" as="sourcePoint" />
            <mxPoint x="360" y="1440" as="targetPoint" />
          </mxGeometry>
        </mxCell>
        <mxCell id="rpckH2RvcMztJje-xdp0-56" value="" style="endArrow=classic;html=1;rounded=0;entryX=0.167;entryY=-0.011;entryDx=0;entryDy=0;entryPerimeter=0;" edge="1" parent="1" source="rpckH2RvcMztJje-xdp0-38" target="rpckH2RvcMztJje-xdp0-32">
          <mxGeometry width="50" height="50" relative="1" as="geometry">
            <mxPoint x="410" y="970" as="sourcePoint" />
            <mxPoint x="460" y="920" as="targetPoint" />
          </mxGeometry>
        </mxCell>
        <mxCell id="rpckH2RvcMztJje-xdp0-57" value="" style="endArrow=classic;html=1;rounded=0;exitX=0.197;exitY=0.763;exitDx=0;exitDy=0;exitPerimeter=0;entryX=1;entryY=0.25;entryDx=0;entryDy=0;" edge="1" parent="1" source="rpckH2RvcMztJje-xdp0-38" target="rpckH2RvcMztJje-xdp0-33">
          <mxGeometry width="50" height="50" relative="1" as="geometry">
            <mxPoint x="280" y="960" as="sourcePoint" />
            <mxPoint x="300" y="970" as="targetPoint" />
          </mxGeometry>
        </mxCell>
      </root>
    </mxGraphModel>
  </diagram>
</mxfile>
